<svg version="1.1" xmlns="http://www.w3.org/2000/svg" viewBox="-2041.4647434744159 -1579.264064025879 5591.672821095875 2388.480093383789"><desc>Created with Snap</desc><defs></defs><g><rect x="-2041.4647434744159" y="-1579.264064025879" width="5591.672821095875" height="2388.480093383789" fill="#efd9ce" style=""></rect><g transform="matrix(36.9597,0,0,36.9597,-1951.9228,-1302.9624)"><g><rect x="12.099" y="24.526" transform="matrix(0.9359 -0.3522 0.3522 0.9359 -7.9386 8.1048)" fill="#292929" width="12.41" height="2.687" style=""></rect><rect x="25.96" y="32.595" transform="matrix(0.1155 0.9933 -0.9933 0.1155 62.1614 -1.9328)" fill="#292929" width="12.411" height="2.686" style=""></rect><rect x="25.913" y="10.05" transform="matrix(0.0578 0.9983 -0.9983 0.0578 39.4852 -19.0485)" fill="#292929" width="7.842" height="2.688" style=""></rect><rect x="32.327" y="12.946" transform="matrix(-0.7447 0.6674 -0.6674 -0.7447 72.7779 0.7366)" fill="#292929" width="7.842" height="2.687" style=""></rect><g><path fill="#292929" d="M30.098,11.802c-5.142,0-9.31,4.168-9.31,9.311c0,5.142,4.168,9.31,9.31,9.31    c5.141,0,9.309-4.168,9.309-9.31C39.406,15.97,35.238,11.802,30.098,11.802z M27.82,23.801c-2.284,0-4.136-1.852-4.136-4.138    c0-2.285,1.853-4.138,4.136-4.138c2.285,0,4.139,1.853,4.139,4.138C31.959,21.949,30.105,23.801,27.82,23.801z" style=""></path></g><g><path fill="#292929" d="M29.164,0.836c-2.455,0-4.445,1.991-4.445,4.446s1.99,4.446,4.445,4.446c2.457,0,4.447-1.991,4.447-4.446    S31.621,0.836,29.164,0.836z M28.078,6.566c-1.092,0-1.977-0.884-1.977-1.976s0.885-1.977,1.977-1.977s1.977,0.885,1.977,1.977    S29.17,6.566,28.078,6.566z" style=""></path></g><g><path fill="#292929" d="M41.803,4.934c-2.363-0.661-4.816,0.721-5.479,3.086c-0.66,2.365,0.721,4.818,3.086,5.479    c2.365,0.661,4.818-0.721,5.479-3.086C45.551,8.048,44.168,5.595,41.803,4.934z M39.215,10.16    c-1.053-0.293-1.664-1.383-1.371-2.435s1.383-1.665,2.436-1.371c1.051,0.294,1.664,1.383,1.369,2.435    C41.355,9.841,40.266,10.454,39.215,10.16z" style=""></path></g><g><path fill="#292929" d="M8.79,23.425c-2.494,1.142-3.591,4.089-2.449,6.581c1.141,2.494,4.088,3.591,6.58,2.449    c2.494-1.141,3.59-4.088,2.449-6.581S11.282,22.284,8.79,23.425z M10.348,29.75c-1.108,0.507-2.417,0.02-2.925-1.089    s-0.021-2.417,1.088-2.925c1.108-0.507,2.417-0.02,2.925,1.088C11.943,27.934,11.456,29.242,10.348,29.75z" style=""></path></g><g><path fill="#292929" d="M30.271,39.588c-2.365,1.389-3.156,4.432-1.77,6.796c1.389,2.365,4.432,3.156,6.797,1.769    c2.365-1.39,3.156-4.432,1.768-6.797C35.678,38.991,32.635,38.199,30.271,39.588z M32.465,45.722    c-1.051,0.617-2.404,0.266-3.021-0.786s-0.266-2.403,0.787-3.021c1.051-0.616,2.402-0.266,3.02,0.786    C33.867,43.752,33.516,45.104,32.465,45.722z" style=""></path></g></g><desc>Created with Snap</desc><defs></defs></g><g><g transform="matrix(1.024,0,0,-1.024,0,0)"><path d="M328 170Q282 271 246 365Q211 460 186 534Q163 410 147 284Q132 158 108 43Q102 17 86 8Q70 0 59 0Q41 0 30 11Q20 22 20 39Q20 62 25 109Q31 157 39 217Q48 277 59 343Q70 409 81 470Q93 532 103 582Q114 632 122 659Q135 705 175 705Q199 705 216 681Q233 658 252 609Q272 561 299 487Q327 413 371 313Q414 413 440 486Q467 560 485 608Q504 657 521 680Q538 704 563 704Q586 704 598 692Q610 681 616 658Q623 630 633 580Q643 531 654 470Q666 410 677 344Q688 278 697 218Q706 158 711 109Q717 61 717 35Q717 19 706 9Q695 0 678 0Q667 0 651 8Q635 17 629 43Q617 100 607 161Q598 222 589 284Q581 347 573 409Q565 472 556 534Q543 494 526 446Q509 398 490 349Q471 301 451 254Q431 207 412 169Q405 156 393 149Q382 143 370 143Q357 143 345 149Q334 156 328 170ZM805 62Q803 99 801 146Q800 194 800 251Q800 322 801 372Q802 423 806 455Q811 488 821 503Q831 519 849 519Q866 519 879 507Q892 495 894 455Q900 350 900 252Q900 202 898 158Q896 115 894 63Q893 39 889 26Q886 13 880 6Q874 -1 866 -3Q859 -4 849 -4Q831 -4 819 8Q807 21 805 62ZM850 700Q873 700 892 682Q912 664 912 639Q912 615 892 597Q872 580 847 580Q826 580 807 597Q789 615 789 641Q789 665 807 682Q826 700 850 700ZM1259 426Q1222 426 1192 414Q1163 402 1126 378Q1126 357 1126 316Q1126 276 1125 228Q1124 181 1123 135Q1122 89 1119 58Q1117 38 1114 26Q1112 15 1107 9Q1103 3 1095 1Q1088 0 1076 0Q1064 0 1056 1Q1049 3 1044 8Q1039 14 1036 25Q1033 36 1031 55Q1029 73 1027 103Q1026 133 1025 168Q1024 204 1023 240Q1023 277 1023 308Q1023 359 1024 391Q1026 423 1030 448Q1036 490 1046 501Q1056 512 1073 512Q1098 512 1110 498Q1123 484 1126 452Q1163 484 1205 503Q1248 522 1293 522Q1336 522 1371 502Q1407 482 1430 437Q1444 410 1451 377Q1458 345 1461 309Q1462 293 1463 277Q1464 262 1464 244Q1465 227 1465 205Q1465 183 1465 153Q1465 121 1464 93Q1463 65 1458 44Q1454 24 1443 12Q1432 1 1413 1Q1367 1 1365 45Q1365 48 1365 70Q1365 93 1364 123Q1364 153 1363 184Q1363 215 1362 235Q1361 251 1359 269Q1358 288 1355 307Q1353 326 1349 343Q1345 361 1339 375Q1325 408 1304 417Q1283 426 1259 426ZM1812 184Q1777 184 1738 189Q1700 195 1655 213Q1664 152 1705 121Q1747 90 1825 90Q1853 90 1875 93Q1898 97 1915 101Q1932 106 1945 109Q1958 113 1969 113Q1983 113 1996 104Q2009 96 2009 76Q2009 51 1988 35Q1968 19 1938 9Q1909 0 1876 -4Q1843 -7 1818 -7Q1759 -7 1709 9Q1660 25 1624 57Q1588 90 1568 138Q1548 186 1548 250Q1548 312 1567 360Q1587 408 1621 441Q1655 474 1701 491Q1748 508 1802 508Q1844 508 1883 497Q1923 486 1953 464Q1984 442 2002 408Q2021 375 2021 330Q2021 290 2006 262Q1991 234 1963 217Q1936 200 1897 192Q1859 184 1812 184ZM1805 416Q1778 416 1753 409Q1728 403 1707 388Q1687 374 1673 350Q1659 327 1654 292Q1692 275 1728 268Q1764 262 1804 262Q1863 262 1891 276Q1920 291 1920 329Q1920 364 1893 390Q1867 416 1805 416ZM2121 61Q2117 96 2116 146Q2115 196 2115 267Q2115 337 2115 380Q2116 423 2121 456Q2126 497 2136 509Q2147 521 2164 521Q2176 521 2185 519Q2195 517 2202 510Q2210 504 2214 492Q2218 480 2218 459Q2218 455 2219 451Q2219 447 2219 442Q2220 438 2220 432Q2247 466 2281 490Q2316 514 2360 514Q2419 514 2419 465Q2419 447 2411 435Q2404 423 2390 415Q2377 408 2359 404Q2342 400 2321 396Q2289 390 2261 373Q2233 357 2223 332Q2223 313 2223 304Q2224 295 2224 289Q2225 283 2225 276Q2225 269 2225 254Q2225 203 2223 158Q2221 114 2219 62Q2218 38 2213 25Q2209 12 2202 5Q2196 -2 2188 -4Q2180 -5 2172 -5Q2144 -5 2134 7Q2125 20 2121 61ZM2903 -4Q2887 -4 2877 1Q2868 7 2863 16Q2858 25 2856 37Q2854 50 2853 64Q2828 33 2788 12Q2749 -9 2688 -9Q2649 -9 2608 2Q2568 14 2535 42Q2502 71 2481 119Q2460 167 2460 240Q2460 297 2474 347Q2488 397 2516 434Q2545 472 2588 494Q2631 516 2689 516Q2740 516 2780 497Q2820 479 2852 437Q2852 449 2853 461Q2854 474 2858 484Q2863 495 2873 501Q2883 508 2900 508Q2915 508 2928 496Q2941 484 2943 444Q2946 391 2947 349Q2949 307 2949 262Q2949 207 2948 161Q2947 115 2943 63Q2941 40 2937 26Q2934 13 2929 6Q2924 0 2917 -2Q2910 -4 2903 -4ZM2849 250Q2849 302 2833 335Q2818 368 2794 386Q2771 405 2744 412Q2717 419 2694 419Q2658 419 2632 406Q2607 393 2591 370Q2575 348 2567 317Q2560 287 2560 251Q2560 163 2598 121Q2637 79 2703 79Q2742 79 2769 92Q2797 106 2814 129Q2832 152 2840 183Q2849 215 2849 250ZM3072 58Q3071 94 3070 142Q3069 190 3068 246Q3068 302 3067 364Q3067 426 3067 491Q3067 562 3068 613Q3069 664 3073 697Q3078 730 3088 745Q3098 761 3116 761Q3133 761 3146 750Q3159 739 3161 699Q3165 627 3166 549Q3167 472 3167 397Q3167 352 3167 310Q3167 269 3166 228Q3165 188 3164 146Q3163 104 3161 59Q3160 35 3156 22Q3153 9 3147 2Q3141 -5 3133 -7Q3126 -8 3116 -8Q3098 -8 3086 4Q3074 17 3072 58Z" fill="#292929" style=""></path></g></g></g></svg>