<svg id="Layer_1" data-name="Layer 1" xmlns="http://www.w3.org/2000/svg" viewBox="0 0 854 586"><defs><style>.cls-1{fill:#3db39e;}</style></defs><path class="cls-1" d="M638.42,524.7c-39.14,0-71.17-26.37-71.17-58.6V436.8c0-32.23,32-58.6,71.17-58.6s71.16,26.37,71.16,58.6v29.3C709.58,498.33,677.56,524.7,638.42,524.7ZM567.25,729.59l142.33.21c19.57,0,35.59-13.19,35.59-29.3V641.9c0-48.34-48-87.9-106.75-87.9s-106.75,39.56-106.75,87.9v58.6C531.67,716.67,547.61,729.59,567.25,729.59Zm498.17.21H851.92c-19.68,0-35.59-13.1-35.59-29.3s15.91-29.3,35.59-29.3h213.5c19.67,0,35.58,13.1,35.58,29.3S1085.09,729.8,1065.42,729.8Zm0-117.2H851.92c-19.68,0-35.59-13.13-35.59-29.3S832.24,554,851.92,554h213.5c19.67,0,35.58,13.13,35.58,29.3S1085.09,612.6,1065.42,612.6Zm0-117.2H851.92c-19.68,0-35.59-13.13-35.59-29.3s15.91-29.3,35.59-29.3h213.5c19.67,0,35.58,13.13,35.58,29.3S1085.09,495.4,1065.42,495.4Z" transform="translate(-389.33 -261)"/><path class="cls-1" d="M1172.17,261H460.5c-39.14,0-71.17,26.37-71.17,58.6V788.4c0,32.23,32,58.6,71.17,58.6h711.67c39.14,0,71.16-26.37,71.16-58.6V319.6C1243.33,287.37,1211.31,261,1172.17,261Zm0,512.75c0,8.2-7.83,14.65-17.79,14.65H478.29c-10,0-17.79-6.45-17.79-14.65V334.25c0-8.2,7.83-14.65,17.79-14.65h676.09c10,0,17.79,6.45,17.79,14.65Z" transform="translate(-389.33 -261)"/></svg>